<svg id="Layer_1" data-name="Layer 1" xmlns="http://www.w3.org/2000/svg" viewBox="0 0 1023.94 1023.89"><defs><style>.cls-1{stroke:#fff;stroke-width:40px;}.cls-1,.cls-2{stroke-miterlimit:10;}.cls-2{fill:#888e8c;stroke:#5ec7d2;stroke-width:8px;}</style></defs><rect width="1023.94" height="1023.89" rx="176.21"/><rect class="cls-1" x="74.72" y="88.19" width="874.5" height="847.5" rx="114.35"/><path class="cls-2" d="M660.9,743.41V722.7c74.56-5.92,77.29-10.36,76.38-89.53l.91-301.88c-74.56,135.4-194.59,347-226.42,412.12H488.13c-30.91-67.33-133.67-270.8-202.77-404.72C269.9,597.65,269,656.11,269,670.16c.91,41.44,23.64,47.36,85.47,52.54v20.71H139V722.7c52.74-4.44,74.56-13.32,81.84-53.28,5.45-32.55,6.36-59.19,30-329.25,3.64-38.48-5.45-51.05-85.47-57V262.48H323.55l201,375.13L740,262.48H899.14V283.2c-78.2,7.4-88.21,14.05-86.39,65.85l3.64,284.12c3.64,79.17,6.36,82.87,86.38,89.53v20.71Z" transform="translate(-4.34 -0.26)"/></svg>