<svg id="Layer_1" data-name="Layer 1" xmlns="http://www.w3.org/2000/svg" viewBox="0 0 32 31.96"><defs><style>.cls-1{stroke:#fdfefe;stroke-miterlimit:10;}.cls-2{fill:#fff;}</style></defs><rect width="32" height="31.96" rx="5.24"/><rect class="cls-1" x="2.04" y="1.96" width="27.89" height="28.07" rx="4.3"/><path class="cls-2" d="M20.29,24.61v-.73c2.34-.21,2.43-.37,2.4-3.15l0-10.61c-2.34,4.76-6.12,12.2-7.12,14.49h-.74c-1-2.37-4.21-9.53-6.38-14.23C8,19.48,8,21.54,8,22c0,1.46.75,1.67,2.69,1.85v.73H3.88v-.73c1.65-.16,2.34-.47,2.57-1.88.17-1.14.2-2.08.94-11.57.12-1.36-.17-1.8-2.69-2V7.7h5L16,20.89,22.78,7.7h5v.72c-2.46.26-2.77.5-2.72,2.32l.12,10c.11,2.78.2,2.91,2.72,3.15v.73Z"/></svg>