<svg fill="none" height="96" viewBox="0 0 80 96" width="80" xmlns="http://www.w3.org/2000/svg" xmlns:xlink="http://www.w3.org/1999/xlink"><filter id="a"><feFlood flood-opacity="0" result="BackgroundImageFix"/><feBlend in="SourceGraphic" in2="BackgroundImageFix" mode="normal" result="shape"/><feGaussianBlur result="effect1_foregroundBlur" stdDeviation=".4"/></filter><filter id="b"><feFlood flood-opacity="0" result="BackgroundImageFix"/><feBlend in="SourceGraphic" in2="BackgroundImageFix" mode="normal" result="shape"/><feGaussianBlur result="effect1_foregroundBlur" stdDeviation="4"/></filter><linearGradient id="c" gradientUnits="userSpaceOnUse" x1="73.697403" x2="29.996599" y1="88" y2=".919528"><stop offset="0" stop-color="#e6ad10"/><stop offset="1" stop-color="#f2c811"/></linearGradient><linearGradient id="d" gradientUnits="userSpaceOnUse" x1="62" x2="95.298897" y1="-5.46875" y2="90.713402"><stop offset="0" stop-color="#e6ad10"/><stop offset="1" stop-color="#c87e0e"/></linearGradient><linearGradient id="e" gradientUnits="userSpaceOnUse" x1="52.998199" x2="77.786201" y1="46" y2="93.593002"><stop offset="0" stop-color="#f6d751"/><stop offset="1" stop-color="#e6ad10"/></linearGradient><linearGradient id="f" gradientUnits="userSpaceOnUse" x1="39.998199" x2="55.527199" y1="64" y2="108.11"><stop offset="0" stop-color="#f9e589"/><stop offset="1" stop-color="#f6d751"/></linearGradient><clipPath id="g"><path d="m0 0h96v96h-96z"/></clipPath><mask id="h" height="96" maskUnits="userSpaceOnUse" width="80" x="8" y="0"><path d="m9.17157 22.8284c-.75014.7502-1.17157 1.7676-1.17157 2.8284v58.3432c0 2.2091 1.79086 4 4 4h28v4c0 2.2091 1.7909 4 4 4h40c2.2091 0 4-1.7908 4-4v-64h-8v-24c0-2.20914-1.7909-4-4-4h-42.3431c-1.0609 0-2.0783.421426-2.8285 1.17157z" fill="#c4c4c4"/></mask><g clip-path="url(#g)" transform="translate(-8)"><g mask="url(#h)"><path d="m8 0h72v88h-72z" fill="url(#c)"/><path d="m32 0v20c0 2.2091-1.7909 4-4 4h-20z" fill="#f9e589"/><path d="m88 32v64h-18c-2.2091 0-4-1.7909-4-4v-60c0-2.2091 1.7909-4 4-4h14c2.2091 0 4 1.7909 4 4z" fill="url(#d)"/><g filter="url(#a)"><path d="m75 96.4v-46c0-2.2091-1.7909-4-4-4h-14c-2.2091 0-4 1.7909-4 4v14h-9c-2.2091 0-4 1.7909-4 4v28z" fill="#000" fill-opacity=".2"/></g><g filter="url(#b)"><path d="m75 98v-46c0-2.2091-1.7909-4-4-4h-14c-2.2091 0-4 1.7909-4 4v14h-9c-2.2091 0-4 1.7909-4 4v28z" fill="#000" fill-opacity=".18"/></g><path d="m75 50v46h-18c-2.2091 0-4-1.7909-4-4v-42c0-2.2091 1.7909-4 4-4h14c2.2091 0 4 1.7909 4 4z" fill="url(#e)"/><path d="m40 68v28h22v-28c0-2.2091-1.7909-4-4-4h-14c-2.2091 0-4 1.7909-4 4z" fill="url(#f)"/></g></g></svg>